<svg width="81" height="52" viewBox="0 0 81 52" fill="none" xmlns="http://www.w3.org/2000/svg">
<path d="M73.6319 43.8779C78.3714 38.9981 81 32.5729 81 25.7005C81 18.8281 78.3714 12.4029 73.6319 7.52309C69.9279 3.74121 65.2282 1.26063 60.1701 0.365989C59.6524 0.284658 59.1346 0.203327 58.6168 0.162662C58.0991 0.121997 57.5813 0.0813301 57.0636 0.0406647C56.6653 -6.22123e-07 56.2272 0 55.8289 0H52.4037H50.8504H49.2971H31.618C31.0657 0 30.618 0.447715 30.618 1V19.0721V20.658V21.3325C30.618 21.8489 31.0118 22.2797 31.5283 22.2837C31.6477 22.2846 31.7685 22.2846 31.8924 22.2846H34.2778C34.8301 22.2846 35.2778 21.8369 35.2778 21.2846V20.6987V5.75784C35.2778 5.20556 35.7255 4.75784 36.2778 4.75784H49.337H52.4037H55.7891C56.2272 4.75784 56.6254 4.75785 57.0636 4.79851C57.5813 4.83918 58.0991 4.87984 58.6168 4.96117C59.1346 5.0425 59.6524 5.12383 60.1701 5.24583C64.0732 6.0998 67.5781 8.13307 70.3262 10.8983C74.0302 14.6802 76.3402 19.926 76.3402 25.7005C76.3402 37.2495 67.14 46.6432 55.8289 46.6432C50.1734 46.6432 45.0356 44.2846 41.3316 40.5027C38.6822 37.7976 36.7732 34.3743 35.89 30.5609C35.8324 30.3122 35.6127 30.133 35.3575 30.133H31.9323C31.4533 30.133 31.0886 30.5642 31.1854 31.0333C32.1803 35.8541 34.5381 40.3167 38.0259 43.8779C42.7654 48.7171 49.098 51.401 55.8289 51.401C62.5598 51.401 68.8924 48.7171 73.6319 43.8779Z" fill="white"/>
<path d="M47.0497 29.4849C46.5022 29.4915 46.0618 29.9373 46.0618 30.4849V31.1013V32.7057V46.2278C46.0618 46.7801 45.6141 47.2278 45.0618 47.2278H31.8858H30.3196H28.7535H25.34C24.8982 47.2278 24.4967 47.2278 24.0549 47.1867C23.5329 47.1456 23.0108 47.1044 22.4887 47.0222C21.9667 46.9399 21.4446 46.8576 20.9226 46.7342C16.987 45.8703 13.4531 43.8133 10.6821 41.0158C6.94741 37.1899 4.61822 31.8829 4.61822 26.0411C4.61822 14.3576 13.8948 4.85443 25.2998 4.85443C31.0023 4.85443 36.1828 7.24051 39.9175 11.0665C42.5058 13.7179 44.3933 17.0513 45.3182 20.765C45.4326 21.2243 45.8386 21.557 46.312 21.557H49.3949C49.878 21.557 50.2458 21.1223 50.1486 20.6491C49.1457 15.771 46.7682 11.2553 43.2507 7.6519C38.5521 2.71519 32.1669 0 25.3802 0C18.5934 0 12.2483 2.71519 7.42931 7.61076C2.65045 12.5063 -7.62939e-06 19.0475 -7.62939e-06 26C-7.62939e-06 32.9525 2.65045 39.4525 7.42931 44.3892C11.9271 48.9968 17.8304 51.6709 24.1352 51.9589C24.3027 51.9589 24.4702 51.9589 24.6377 51.9827C24.7045 51.9923 24.7716 52 24.839 52C24.9109 52 24.9752 52 25.0589 52C25.1794 52 25.2597 52 25.3802 52H28.8338H49.7603C50.3126 52 50.7603 51.5523 50.7603 51V32.7057V31.1013V30.408C50.7603 29.8917 50.3666 29.4609 49.8503 29.4567C49.7273 29.4557 49.603 29.4557 49.4752 29.4557L47.0497 29.4849Z" fill="white"/>
</svg>
